# xmcd CD database file
#
# Track frame offsets:
#	150
#	21698
#	45995
#
# Disc length: 892 seconds
#
# Revision: 1
# Processed by: cddbd v1.5.2PL0 Copyright (c) Steve Scherf et al.
# Submitted via: CDex 1.70beta2
#
DISCID=1f037a03
DTITLE=Daft Punk - Technologic
DYEAR=1900
DGENRE=Electronic
TTITLE0=Technologic
TTITLE1=Technologic [Vitalic Remix]
TTITLE2=Technologic [Peaches No Logic Remix]
EXTD=
EXTT0=
EXTT1=
EXTT2=
PLAYORDER=
